<svg xmlns="http://www.w3.org/2000/svg" viewBox="0 0 300 400" width="300" height="400"><rect width="300" height="400" fill="#FFFFFF"/><g fill="none" stroke="#000000" stroke-width="1"><rect x="24" y="24" width="252" height="352"/><rect x="26.7" y="26.7" width="19.7" height="23.8" fill="#000000"/><rect x="51.9" y="26.7" width="19.7" height="23.8"/><rect x="77.1" y="26.7" width="19.7" height="23.8" fill="#000000"/><rect x="102.3" y="26.7" width="19.7" height="23.8"/><rect x="127.5" y="26.7" width="19.7" height="23.8" fill="#000000"/><rect x="152.7" y="26.7" width="19.7" height="23.8" fill="#000000"/><rect x="177.9" y="26.7" width="19.7" height="23.8" fill="#000000"/><rect x="203.1" y="26.7" width="19.7" height="23.8" fill="#000000"/><rect x="228.3" y="26.7" width="19.7" height="23.8" fill="#000000"/><rect x="253.5" y="26.7" width="19.7" height="23.8"/><rect x="24" y="56.1" width="252" height="23.8" fill="#000000"/><rect x="26.7" y="85.4" width="19.7" height="23.8" fill="#000000"/><rect x="51.9" y="85.4" width="19.7" height="23.8"/><rect x="77.1" y="85.4" width="19.7" height="23.8" fill="#000000"/><rect x="102.3" y="85.4" width="19.7" height="23.8"/><rect x="127.5" y="85.4" width="19.7" height="23.8" fill="#000000"/><rect x="152.7" y="85.4" width="19.7" height="23.8"/><rect x="177.9" y="85.4" width="19.7" height="23.8" fill="#000000"/><rect x="203.1" y="85.4" width="19.7" height="23.8"/><rect x="228.3" y="85.4" width="19.7" height="23.8"/><rect x="253.5" y="85.4" width="19.7" height="23.8" fill="#000000"/><rect x="26.7" y="114.7" width="19.7" height="23.8" fill="#000000"/><rect x="51.9" y="114.7" width="19.7" height="23.8" fill="#000000"/><rect x="77.1" y="114.7" width="19.7" height="23.8"/><rect x="102.3" y="114.7" width="19.7" height="23.8" fill="#000000"/><rect x="127.5" y="114.7" width="19.7" height="23.8"/><rect x="152.7" y="114.7" width="19.7" height="23.8"/><rect x="177.9" y="114.7" width="19.7" height="23.8"/><rect x="203.1" y="114.7" width="19.7" height="23.8"/><rect x="228.3" y="114.7" width="19.7" height="23.8" fill="#000000"/><rect x="253.5" y="114.7" width="19.7" height="23.8" fill="#000000"/><rect x="26.7" y="144.1" width="19.7" height="23.8" fill="#000000"/><rect x="51.9" y="144.1" width="19.7" height="23.8" fill="#000000"/><rect x="77.1" y="144.1" width="19.7" height="23.8"/><rect x="102.3" y="144.1" width="19.7" height="23.8" fill="#000000"/><rect x="127.5" y="144.1" width="19.7" height="23.8"/><rect x="152.7" y="144.1" width="19.7" height="23.8" fill="#000000"/><rect x="177.9" y="144.1" width="19.7" height="23.8"/><rect x="203.1" y="144.1" width="19.7" height="23.8" fill="#000000"/><rect x="228.3" y="144.1" width="19.7" height="23.8" fill="#000000"/><rect x="253.5" y="144.1" width="19.7" height="23.8" fill="#000000"/><rect x="26.7" y="173.4" width="19.7" height="23.8" fill="#000000"/><rect x="51.9" y="173.4" width="19.7" height="23.8"/><rect x="77.1" y="173.4" width="19.7" height="23.8"/><rect x="102.3" y="173.4" width="19.7" height="23.8" fill="#000000"/><rect x="127.5" y="173.4" width="19.7" height="23.8"/><rect x="152.7" y="173.4" width="19.7" height="23.8" fill="#000000"/><rect x="177.9" y="173.4" width="19.7" height="23.8"/><rect x="203.1" y="173.4" width="19.7" height="23.8" fill="#000000"/><rect x="228.3" y="173.4" width="19.7" height="23.8" fill="#000000"/><rect x="253.5" y="173.4" width="19.7" height="23.8"/><rect x="26.7" y="202.7" width="19.7" height="23.8"/><rect x="51.9" y="202.7" width="19.7" height="23.8" fill="#000000"/><rect x="77.1" y="202.7" width="19.7" height="23.8"/><rect x="102.3" y="202.7" width="19.7" height="23.8" fill="#000000"/><rect x="127.5" y="202.7" width="19.7" height="23.8" fill="#000000"/><rect x="152.7" y="202.7" width="19.7" height="23.8" fill="#000000"/><rect x="177.9" y="202.7" width="19.7" height="23.8" fill="#000000"/><rect x="203.1" y="202.7" width="19.7" height="23.8" fill="#000000"/><rect x="228.3" y="202.7" width="19.7" height="23.8"/><rect x="253.5" y="202.7" width="19.7" height="23.8"/><rect x="26.7" y="232.1" width="19.7" height="23.8" fill="#000000"/><rect x="51.9" y="232.1" width="19.7" height="23.8" fill="#000000"/><rect x="77.1" y="232.1" width="19.7" height="23.8"/><rect x="102.3" y="232.1" width="19.7" height="23.8" fill="#000000"/><rect x="127.5" y="232.1" width="19.7" height="23.8" fill="#000000"/><rect x="152.7" y="232.1" width="19.7" height="23.8"/><rect x="177.9" y="232.1" width="19.7" height="23.8"/><rect x="203.1" y="232.1" width="19.7" height="23.8" fill="#000000"/><rect x="228.3" y="232.1" width="19.7" height="23.8"/><rect x="253.5" y="232.1" width="19.7" height="23.8"/><rect x="26.7" y="261.4" width="19.7" height="23.8" fill="#000000"/><rect x="51.9" y="261.4" width="19.7" height="23.8"/><rect x="77.1" y="261.4" width="19.7" height="23.8" fill="#000000"/><rect x="102.3" y="261.4" width="19.7" height="23.8" fill="#000000"/><rect x="127.5" y="261.4" width="19.7" height="23.8" fill="#000000"/><rect x="152.7" y="261.4" width="19.7" height="23.8"/><rect x="177.9" y="261.4" width="19.7" height="23.8"/><rect x="203.1" y="261.4" width="19.7" height="23.8"/><rect x="228.3" y="261.4" width="19.7" height="23.8" fill="#000000"/><rect x="253.5" y="261.4" width="19.7" height="23.8"/><rect x="26.7" y="290.7" width="19.7" height="23.8"/><rect x="51.9" y="290.7" width="19.7" height="23.8"/><rect x="77.1" y="290.7" width="19.7" height="23.8" fill="#000000"/><rect x="102.3" y="290.7" width="19.7" height="23.8" fill="#000000"/><rect x="127.5" y="290.7" width="19.7" height="23.8" fill="#000000"/><rect x="152.7" y="290.7" width="19.7" height="23.8" fill="#000000"/><rect x="177.9" y="290.7" width="19.7" height="23.8" fill="#000000"/><rect x="203.1" y="290.7" width="19.7" height="23.8"/><rect x="228.3" y="290.7" width="19.7" height="23.8" fill="#000000"/><rect x="253.5" y="290.7" width="19.7" height="23.8" fill="#000000"/><rect x="26.7" y="320.1" width="19.7" height="23.8" fill="#000000"/><rect x="51.9" y="320.1" width="19.7" height="23.8"/><rect x="77.1" y="320.1" width="19.7" height="23.8" fill="#000000"/><rect x="102.3" y="320.1" width="19.7" height="23.8" fill="#000000"/><rect x="127.5" y="320.1" width="19.7" height="23.8" fill="#000000"/><rect x="152.7" y="320.1" width="19.7" height="23.8"/><rect x="177.9" y="320.1" width="19.7" height="23.8"/><rect x="203.1" y="320.1" width="19.7" height="23.8" fill="#000000"/><rect x="228.3" y="320.1" width="19.7" height="23.8"/><rect x="253.5" y="320.1" width="19.7" height="23.8" fill="#000000"/><rect x="26.7" y="349.4" width="19.7" height="23.8"/><rect x="51.9" y="349.4" width="19.7" height="23.8"/><rect x="77.1" y="349.4" width="19.7" height="23.8"/><rect x="102.3" y="349.4" width="19.7" height="23.8" fill="#000000"/><rect x="127.5" y="349.4" width="19.7" height="23.8" fill="#000000"/><rect x="152.7" y="349.4" width="19.7" height="23.8" fill="#000000"/><rect x="177.9" y="349.4" width="19.7" height="23.8" fill="#000000"/><rect x="203.1" y="349.4" width="19.7" height="23.8"/><rect x="228.3" y="349.4" width="19.7" height="23.8" fill="#000000"/><rect x="253.5" y="349.4" width="19.7" height="23.8" fill="#000000"/></g></svg>