<svg xmlns="http://www.w3.org/2000/svg" viewBox="0 0 300 400" width="300" height="400"><rect width="300" height="400" fill="#000000"/><defs><pattern id="t1" width="6" height="6" patternUnits="userSpaceOnUse" patternTransform="rotate(45)"><circle cx="3" cy="3" r="0.7" fill="#FFFFFF"/></pattern><pattern id="t2" width="6" height="6" patternUnits="userSpaceOnUse" patternTransform="rotate(45)"><circle cx="3" cy="3" r="1.15" fill="#FFFFFF"/></pattern><pattern id="t3" width="6" height="6" patternUnits="userSpaceOnUse" patternTransform="rotate(45)"><circle cx="3" cy="3" r="1.6" fill="#FFFFFF"/></pattern><pattern id="t4" width="6" height="6" patternUnits="userSpaceOnUse" patternTransform="rotate(45)"><circle cx="3" cy="3" r="2.1" fill="#FFFFFF"/></pattern><pattern id="t5" width="6" height="6" patternUnits="userSpaceOnUse" patternTransform="rotate(45)"><circle cx="3" cy="3" r="2.6" fill="#FFFFFF"/></pattern><pattern id="l1" width="5" height="5" patternUnits="userSpaceOnUse" patternTransform="rotate(-35)"><rect width="0.8" height="5" fill="#FFFFFF"/></pattern><pattern id="l2" width="5" height="5" patternUnits="userSpaceOnUse" patternTransform="rotate(-35)"><rect width="1.6" height="5" fill="#FFFFFF"/></pattern><pattern id="l3" width="5" height="5" patternUnits="userSpaceOnUse" patternTransform="rotate(-35)"><rect width="2.6" height="5" fill="#FFFFFF"/></pattern></defs><clipPath id="mm"><rect x="42" y="42" width="216" height="276"/></clipPath><g clip-path="url(#mm)"><rect x="48" y="256.6" width="63.8" height="55.4" fill="#FFFFFF"/><rect x="48" y="48" width="128.2" height="67.7" fill="url(#t3)"/><rect x="176.2" y="48" width="75.8" height="67.7" fill="url(#l2)"/><path d="M48 205.5 H252 M48 115.7 H252 M48 256.6 H252 M153 115.7 V205.5 M176.2 48 V115.7 M111.8 256.6 V312" stroke="#FFFFFF" stroke-width="5.2" fill="none"/><rect x="48" y="48" width="204" height="264" fill="none" stroke="#FFFFFF" stroke-width="5.2"/></g><rect x="27" y="27" width="246" height="306" fill="none" stroke="#FFFFFF" stroke-width="6"/><rect x="36" y="36" width="228" height="288" fill="none" stroke="#FFFFFF" stroke-width="1.5"/><rect x="20" y="20" width="14" height="14" fill="#000000" stroke="#FFFFFF" stroke-width="2.5"/><rect x="24.5" y="24.5" width="5" height="5" fill="#FFFFFF"/><rect x="266" y="20" width="14" height="14" fill="#000000" stroke="#FFFFFF" stroke-width="2.5"/><rect x="270.5" y="24.5" width="5" height="5" fill="#FFFFFF"/><rect x="20" y="326" width="14" height="14" fill="#000000" stroke="#FFFFFF" stroke-width="2.5"/><rect x="24.5" y="330.5" width="5" height="5" fill="#FFFFFF"/><rect x="266" y="326" width="14" height="14" fill="#000000" stroke="#FFFFFF" stroke-width="2.5"/><rect x="270.5" y="330.5" width="5" height="5" fill="#FFFFFF"/><text x="150" y="359" font-size="13" font-weight="400" font-style="italic" text-anchor="middle" font-family="Georgia, 'Times New Roman', serif" fill="#FFFFFF">Composition with Opinions</text><text x="150" y="373" font-size="8.5" font-weight="400" letter-spacing="1.5" text-anchor="middle" font-family="'Courier New', Courier, monospace" fill="#FFFFFF">AFTER MONDRIAN, 1930</text></svg>