<svg xmlns="http://www.w3.org/2000/svg" viewBox="0 0 300 400" width="300" height="400"><rect width="300" height="400" fill="#000000"/><rect x="12" y="12" width="276" height="376" fill="#FFFFFF"/><text x="28" y="40" font-size="10" font-weight="400" text-anchor="start" font-family="'Courier New', Courier, monospace" fill="#000000">$ banner "sudo nap"</text><g font-size="15.1" font-weight="700" font-family="'Courier New', Courier, monospace" fill="#000000"><text x="50.6" y="84" textLength="36.1" lengthAdjust="spacingAndGlyphs">$$$$</text><text x="95.8" y="84">$</text><text x="131.9" y="84">$</text><text x="150" y="84" textLength="36.1" lengthAdjust="spacingAndGlyphs">$$$$</text><text x="213.2" y="84" textLength="27.1" lengthAdjust="spacingAndGlyphs">$$$</text><text x="41.6" y="99.1">$</text><text x="95.8" y="99.1">$</text><text x="131.9" y="99.1">$</text><text x="150" y="99.1">$</text><text x="186.1" y="99.1">$</text><text x="204.2" y="99.1">$</text><text x="240.4" y="99.1">$</text><text x="41.6" y="114.2">$</text><text x="95.8" y="114.2">$</text><text x="131.9" y="114.2">$</text><text x="150" y="114.2">$</text><text x="186.1" y="114.2">$</text><text x="204.2" y="114.2">$</text><text x="240.4" y="114.2">$</text><text x="50.6" y="129.2" textLength="27.1" lengthAdjust="spacingAndGlyphs">$$$</text><text x="95.8" y="129.2">$</text><text x="131.9" y="129.2">$</text><text x="150" y="129.2">$</text><text x="186.1" y="129.2">$</text><text x="204.2" y="129.2">$</text><text x="240.4" y="129.2">$</text><text x="77.7" y="144.3">$</text><text x="95.8" y="144.3">$</text><text x="131.9" y="144.3">$</text><text x="150" y="144.3">$</text><text x="186.1" y="144.3">$</text><text x="204.2" y="144.3">$</text><text x="240.4" y="144.3">$</text><text x="77.7" y="159.3">$</text><text x="95.8" y="159.3">$</text><text x="131.9" y="159.3">$</text><text x="150" y="159.3">$</text><text x="186.1" y="159.3">$</text><text x="204.2" y="159.3">$</text><text x="240.4" y="159.3">$</text><text x="41.6" y="174.4" textLength="36.1" lengthAdjust="spacingAndGlyphs">$$$$</text><text x="104.8" y="174.4" textLength="27.1" lengthAdjust="spacingAndGlyphs">$$$</text><text x="150" y="174.4" textLength="36.1" lengthAdjust="spacingAndGlyphs">$$$$</text><text x="213.2" y="174.4" textLength="27.1" lengthAdjust="spacingAndGlyphs">$$$</text><text x="41.6" y="219.6">$</text><text x="77.7" y="219.6">$</text><text x="104.8" y="219.6" textLength="27.1" lengthAdjust="spacingAndGlyphs">$$$</text><text x="150" y="219.6" textLength="36.1" lengthAdjust="spacingAndGlyphs">$$$$</text><text x="41.6" y="234.6">$</text><text x="77.7" y="234.6">$</text><text x="95.8" y="234.6">$</text><text x="131.9" y="234.6">$</text><text x="150" y="234.6">$</text><text x="186.1" y="234.6">$</text><text x="41.6" y="249.7" textLength="18.1" lengthAdjust="spacingAndGlyphs">$$</text><text x="77.7" y="249.7">$</text><text x="95.8" y="249.7">$</text><text x="131.9" y="249.7">$</text><text x="150" y="249.7">$</text><text x="186.1" y="249.7">$</text><text x="41.6" y="264.8">$</text><text x="59.6" y="264.8">$</text><text x="77.7" y="264.8">$</text><text x="95.8" y="264.8" textLength="45.2" lengthAdjust="spacingAndGlyphs">$$$$$</text><text x="150" y="264.8" textLength="36.1" lengthAdjust="spacingAndGlyphs">$$$$</text><text x="41.6" y="279.8">$</text><text x="68.7" y="279.8" textLength="18.1" lengthAdjust="spacingAndGlyphs">$$</text><text x="95.8" y="279.8">$</text><text x="131.9" y="279.8">$</text><text x="150" y="279.8">$</text><text x="41.6" y="294.9">$</text><text x="77.7" y="294.9">$</text><text x="95.8" y="294.9">$</text><text x="131.9" y="294.9">$</text><text x="150" y="294.9">$</text><text x="41.6" y="309.9">$</text><text x="77.7" y="309.9">$</text><text x="95.8" y="309.9">$</text><text x="131.9" y="309.9">$</text><text x="150" y="309.9">$</text></g><text x="150" y="368" font-size="10" font-weight="400" text-anchor="middle" font-family="'Courier New', Courier, monospace" fill="#000000">&gt; hand-typed. mostly.</text></svg>