<svg xmlns="http://www.w3.org/2000/svg" viewBox="0 0 300 400" width="300" height="400"><rect width="300" height="400" fill="#000000"/><g fill="#FFFFFF"><rect x="168" y="128" width="6.2" height="6.2"/><rect x="144" y="134" width="54.2" height="6.2"/><rect x="138" y="140" width="66.2" height="6.2"/><rect x="132" y="146" width="78.2" height="6.2"/><rect x="126" y="152" width="90.2" height="6.2"/><rect x="120" y="158" width="102.2" height="6.2"/><rect x="120" y="164" width="102.2" height="6.2"/><rect x="120" y="170" width="102.2" height="6.2"/><rect x="120" y="176" width="102.2" height="6.2"/><rect x="114" y="182" width="114.2" height="6.2"/><rect x="120" y="194" width="102.2" height="6.2"/><rect x="120" y="206" width="102.2" height="6.2"/><rect x="24" y="218" width="252.2" height="6.2"/><rect x="120" y="230" width="102.2" height="6.2"/><rect x="24" y="242" width="252.2" height="6.2"/><rect x="24" y="254" width="252.2" height="6.2"/><rect x="132" y="266" width="78.2" height="6.2"/><rect x="24" y="272" width="252.2" height="6.2"/><rect x="138" y="278" width="66.2" height="6.2"/><rect x="24" y="290" width="252.2" height="6.2"/><rect x="24" y="302" width="252.2" height="6.2"/><rect x="24" y="314" width="252.2" height="6.2"/><rect x="24" y="326" width="252.2" height="6.2"/><rect x="24" y="332" width="252.2" height="6.2"/><rect x="24" y="338" width="252.2" height="6.2"/><rect x="24" y="344" width="252.2" height="6.2"/><rect x="24" y="350" width="252.2" height="6.2"/><rect x="24" y="356" width="252.2" height="6.2"/><rect x="24" y="362" width="252.2" height="6.2"/><rect x="24" y="368" width="252.2" height="6.2"/></g></svg>