<svg xmlns="http://www.w3.org/2000/svg" viewBox="0 0 300 400" width="300" height="400"><rect width="300" height="400" fill="#FFFFFF"/><g fill="none" stroke="#000000" transform="translate(18 26.2) scale(2 4.4)"><path stroke-width=".1" d="M41 22h1M43 24h1M38 25h1M46 25h2M51 25h1M36 26h1M55 27h1M64 28h1M86 28h1M98 28h1M80 29h1M105 29h1M43 30h1M74 30h1M112 30h1M55 31h5M115 31h1M54 32h1M71 32h1M115 32h1M48 33h1M72 33h2M48 34h1M107 34h1M42 35h1M59 36h1M98 36h2M28 37h1M52 37h1M58 37h1M61 37h2M81 37h1M22 38h1M46 38h1M50 38h1M54 38h2M83 38h3M15 39h1M41 39h1M47 39h2M50 39h1M85 39h4M10 40h1M18 40h2M37 40h2M43 40h1M91 40h1M6 41h1M39 41h1M68 41h2M89 41h1M94 41h1M106 41h1M34 42h1M63 42h3M92 42h1M96 42h1M117 42h1M26 43h1M59 43h2M66 43h1M70 43h1M95 43h1M99 43h1M115 43h1M120 43h1M6 44h1M25 44h1M61 44h1M88 44h4M98 44h1M101 44h1M113 44h1M6 45h1M89 45h2M95 45h1M101 45h1M104 45h1M6 46h1M76 46h1M90 46h2M104 46h2M6 47h1M47 47h1M93 47h1M97 47h2M108 47h1M6 48h1M75 48h1M6 49h1M86 49h1M115 49h1M6 50h1M33 50h1M75 50h1M99 50h2M6 51h1M103 51h2M108 51h1M6 52h1M101 52h1M116 52h1M118 52h1M19 53h1M98 53h2M14 54h1M96 54h2M100 54h1M94 55h1"/><path stroke-width=".2" d="M39 23h1M39 24h1M41 24h1M48 25h1M37 26h1M54 27h1M33 28h7M63 28h1M87 28h1M97 28h1M69 29h1M104 29h1M55 30h2M75 30h1M103 30h2M111 30h1M52 31h3M103 31h1M55 32h5M70 32h1M72 32h1M59 33h1M71 33h1M111 33h1M49 34h1M106 34h1M76 35h2M102 35h1M36 36h1M77 36h4M90 36h1M92 36h1M97 36h1M100 36h1M29 37h1M53 37h1M56 37h1M59 37h2M79 37h2M82 37h2M93 37h1M23 38h1M45 38h1M47 38h2M58 38h2M81 38h2M86 38h1M94 38h1M16 39h3M42 39h1M84 39h1M89 39h1M98 39h1M17 40h1M20 40h2M39 40h4M44 40h1M86 40h1M92 40h1M102 40h1M122 40h1M125 40h1M30 41h1M33 41h3M38 41h1M40 41h3M66 41h2M88 41h1M95 41h1M98 41h2M123 41h1M21 42h1M23 42h2M36 42h1M61 42h2M82 42h2M91 42h1M97 42h1M101 42h4M108 42h1M23 43h2M30 43h2M58 43h1M61 43h1M65 43h1M83 43h5M94 43h1M100 43h1M103 43h4M26 44h1M55 44h2M73 44h1M85 44h3M97 44h1M102 44h1M116 44h1M118 44h1M55 45h2M87 45h2M100 45h1M114 45h1M51 46h1M78 46h1M98 46h1M103 46h1M106 46h1M112 46h1M81 47h1M92 47h1M99 47h1M107 47h1M109 47h3M113 47h1M42 48h1M84 48h1M95 48h5M37 49h1M76 49h1M74 50h1M90 50h1M104 50h1M116 50h1M28 51h1M101 51h2M106 51h1M23 52h1M97 52h1M100 52h1M102 52h1M104 52h1M7 53h1M95 53h1M102 53h1M9 54h1M93 54h1M95 54h1M91 55h1M93 55h1M97 55h1M91 56h1M88 57h1M91 57h1"/><path stroke-width=".3" d="M39 22h1M40 23h1M42 23h1M40 24h1M40 25h1M49 25h2M38 26h1M53 27h1M61 28h2M88 28h1M96 28h1M42 29h1M68 29h1M81 29h1M97 29h3M103 29h1M54 30h1M57 30h1M60 30h1M76 30h1M95 30h2M98 30h2M102 30h1M105 30h1M110 30h1M45 31h1M51 31h1M68 31h3M99 31h4M104 31h1M49 32h1M52 32h2M60 32h1M58 33h1M74 33h1M110 33h1M72 34h5M101 34h1M105 34h1M43 35h1M74 35h2M78 35h2M91 35h7M101 35h1M37 36h1M55 36h1M58 36h1M60 36h1M76 36h1M81 36h2M86 36h4M91 36h1M93 36h1M95 36h2M30 37h2M51 37h1M63 37h1M78 37h1M84 37h2M87 37h3M91 37h2M24 38h1M53 38h1M56 38h1M80 38h1M87 38h3M93 38h1M19 39h2M38 39h3M46 39h1M55 39h1M83 39h1M90 39h5M97 39h1M11 40h1M48 40h2M67 40h2M84 40h2M93 40h6M101 40h1M28 41h1M43 41h1M62 41h4M78 41h1M87 41h1M96 41h2M100 41h3M105 41h1M120 41h1M6 42h1M20 42h1M22 42h1M25 42h1M59 42h2M66 42h3M79 42h3M90 42h1M98 42h3M105 42h1M121 42h1M21 43h2M32 43h1M56 43h2M62 43h3M82 43h1M88 43h1M93 43h1M101 43h2M107 43h1M110 43h1M118 43h1M24 44h1M53 44h2M57 44h4M84 44h1M92 44h1M96 44h1M103 44h7M20 45h2M51 45h1M54 45h1M75 45h1M86 45h1M96 45h1M99 45h1M105 45h5M115 45h2M50 46h1M89 46h1M107 46h2M111 46h1M113 46h1M46 47h1M77 47h1M82 47h1M91 47h1M106 47h1M41 48h1M73 48h1M94 48h1M109 48h3M87 49h1M96 49h2M112 49h2M32 50h1M98 50h1M103 50h1M105 50h1M27 51h1M99 51h1M109 51h2M99 52h1M117 52h1M18 53h1M97 53h1M100 53h1M10 54h4M94 54h1M98 54h2M95 55h2M89 56h2M92 56h3M89 57h2"/><path stroke-width=".4" d="M38 22h1M40 22h1M39 25h1M41 25h2M40 26h1M51 26h1M51 27h2M40 28h1M60 28h1M89 28h1M95 28h1M57 29h1M67 29h1M82 29h1M91 29h4M102 29h1M47 30h2M51 30h3M58 30h2M67 30h3M71 30h1M77 30h1M92 30h3M97 30h1M100 30h2M106 30h4M49 31h2M60 31h1M71 31h1M98 31h1M106 31h3M47 32h1M51 32h1M61 32h1M68 32h2M73 32h1M110 32h1M114 32h1M49 33h1M57 33h1M60 33h2M69 33h2M75 33h1M95 33h12M109 33h1M70 34h2M77 34h2M88 34h13M102 34h1M104 34h1M44 35h1M73 35h1M80 35h11M98 35h1M38 36h1M56 36h2M75 36h1M83 36h3M94 36h1M32 37h1M54 37h2M77 37h1M86 37h1M90 37h1M25 38h1M57 38h1M60 38h1M79 38h1M90 38h1M92 38h1M21 39h2M56 39h2M63 39h4M81 39h2M96 39h1M12 40h1M22 40h1M31 40h3M50 40h1M59 40h8M73 40h3M83 40h1M99 40h2M123 40h1M7 41h1M32 41h1M57 41h5M76 41h2M79 41h1M86 41h1M103 41h2M29 42h5M54 42h5M78 42h1M84 42h1M89 42h1M107 42h1M118 42h1M120 42h1M6 43h1M33 43h1M53 43h3M71 43h1M81 43h1M89 43h1M92 43h1M108 43h1M116 43h2M119 43h1M22 44h2M27 44h1M50 44h3M83 44h1M93 44h1M95 44h1M110 44h2M114 44h2M117 44h1M22 45h1M48 45h3M52 45h2M110 45h1M112 45h2M45 46h2M49 46h1M102 46h1M114 46h1M38 47h4M45 47h1M75 47h1M78 47h1M40 48h1M74 48h1M100 48h1M112 48h2M36 49h1M75 49h1M95 49h1M111 49h1M31 50h1M91 50h1M95 50h1M97 50h1M101 50h1M114 50h1M105 51h1M111 51h1M117 51h1M22 52h1M98 52h1M103 52h1M17 53h1M96 53h1M101 53h1M92 55h1"/><path stroke-width=".5" d="M41 23h1M38 24h1M42 24h1M32 27h1M50 27h1M42 28h3M50 28h2M54 28h2M58 28h2M90 28h1M94 28h1M45 29h1M48 29h2M54 29h3M58 29h4M63 29h4M83 29h2M90 29h1M95 29h2M100 29h2M46 30h1M50 30h1M61 30h1M63 30h4M70 30h1M78 30h1M91 30h1M48 31h1M61 31h5M67 31h1M85 31h13M105 31h1M109 31h1M114 31h1M50 32h1M62 32h4M74 32h1M81 32h29M111 32h1M113 32h1M51 33h1M53 33h1M56 33h1M62 33h4M76 33h19M107 33h2M50 34h1M62 34h4M69 34h1M79 34h9M103 34h1M45 35h1M69 35h4M39 36h1M54 36h1M61 36h1M73 36h2M33 37h1M64 37h1M75 37h2M44 38h1M51 38h2M61 38h6M77 38h2M91 38h1M23 39h1M37 39h1M43 39h1M45 39h1M51 39h4M58 39h5M67 39h5M79 39h2M95 39h1M23 40h1M30 40h1M34 40h1M36 40h1M45 40h1M47 40h1M51 40h8M69 40h1M72 40h1M76 40h1M81 40h2M8 41h1M19 41h2M31 41h1M44 41h1M46 41h11M70 41h1M75 41h1M80 41h2M84 41h2M121 41h2M26 42h1M28 42h1M43 42h3M47 42h7M69 42h1M77 42h1M85 42h1M88 42h1M106 42h1M119 42h1M18 43h1M34 43h1M45 43h8M80 43h1M90 43h2M109 43h1M21 44h1M45 44h5M82 44h1M94 44h1M23 45h1M43 45h5M77 45h1M85 45h1M97 45h2M40 46h5M47 46h2M75 46h1M88 46h1M99 46h3M109 46h1M36 47h2M42 47h1M44 47h1M85 47h1M90 47h1M100 47h1M105 47h1M112 47h1M34 48h4M39 48h1M77 48h1M85 48h1M93 48h1M108 48h1M35 49h1M98 49h1M110 49h1M114 49h1M30 50h1M92 50h1M94 50h1M96 50h1M102 50h1M113 50h1M26 51h1M100 51h1M112 51h2M115 51h1M21 52h1"/><path stroke-width=".6" d="M38 23h1M43 25h1M39 26h1M41 26h1M43 26h1M33 27h2M46 27h3M41 28h1M45 28h5M52 28h2M56 28h2M91 28h1M93 28h1M44 29h1M46 29h2M50 29h4M62 29h1M85 29h1M87 29h3M44 30h1M49 30h1M62 30h1M79 30h1M82 30h9M47 31h1M66 31h1M72 31h2M75 31h10M110 31h4M48 32h1M66 32h2M75 32h6M112 32h1M50 33h1M52 33h1M55 33h1M66 33h3M52 34h2M58 34h2M61 34h1M66 34h2M46 35h1M50 35h2M64 35h5M99 35h2M40 36h1M44 36h10M66 36h2M71 36h2M42 37h9M73 37h2M26 38h1M41 38h3M67 38h2M75 38h2M24 39h2M29 39h3M44 39h1M72 39h1M78 39h1M13 40h1M16 40h1M24 40h2M28 40h2M35 40h1M46 40h1M71 40h1M77 40h1M80 40h1M124 40h1M16 41h3M21 41h7M36 41h2M45 41h1M73 41h2M82 41h2M8 42h12M27 42h1M37 42h6M46 42h1M76 42h1M86 42h2M10 43h8M27 43h1M29 43h1M35 43h10M79 43h1M11 44h10M28 44h1M33 44h12M74 44h1M81 44h1M16 45h2M24 45h1M34 45h9M76 45h1M79 45h3M84 45h1M34 46h6M79 46h1M82 46h2M87 46h1M110 46h1M33 47h3M43 47h1M74 47h1M103 47h2M31 48h3M38 48h1M76 48h1M92 48h1M101 48h1M106 48h2M29 49h6M88 49h1M94 49h1M108 49h2M27 50h2M93 50h1M106 50h1M111 50h2M115 50h1M25 51h1M114 51h1M116 51h1M16 53h1"/><path stroke-width=".7" d="M42 26h1M44 26h1M35 27h1M37 27h5M43 27h3M49 27h1M92 28h1M43 29h1M86 29h1M45 30h1M80 30h2M46 31h1M74 31h1M54 33h1M51 34h1M57 34h1M60 34h1M68 34h1M47 35h3M52 35h7M63 35h1M41 36h3M62 36h1M65 36h1M68 36h1M70 36h1M34 37h1M36 37h6M71 37h2M27 38h1M29 38h12M69 38h1M74 38h1M26 39h3M32 39h5M73 39h1M76 39h2M14 40h2M26 40h2M70 40h1M78 40h2M9 41h7M72 41h1M7 42h1M75 42h1M8 43h2M28 43h1M72 43h1M77 43h2M7 44h1M9 44h2M29 44h4M78 44h3M7 45h1M10 45h6M18 45h2M25 45h9M82 45h2M111 45h1M7 46h1M11 46h23M81 46h1M84 46h1M86 46h1M7 47h1M12 47h21M83 47h2M86 47h1M88 47h2M101 47h2M7 48h1M16 48h4M21 48h10M91 48h1M104 48h2M7 49h1M22 49h7M92 49h2M99 49h1M7 50h1M23 50h4M29 50h1M108 50h3M7 51h1M22 51h3M7 52h1M20 52h1"/><path stroke-width=".8" d="M45 26h6M36 27h1M42 27h1M54 34h3M59 35h4M63 36h2M69 36h1M35 37h1M65 37h3M69 37h2M28 38h1M70 38h4M74 39h2M70 42h1M74 42h1M74 43h3M8 44h1M75 44h3M8 45h2M78 45h1M8 46h3M80 46h1M85 46h1M8 47h4M87 47h1M8 48h8M20 48h1M86 48h5M102 48h2M8 49h14M89 49h3M101 49h1M103 49h5M8 50h15M107 50h1M8 51h1M13 51h9M13 52h7M8 53h1M13 53h3"/><path stroke-width=".9" d="M68 37h1M71 41h1M71 42h3M7 43h1M73 43h1M100 49h1M102 49h1M9 51h4M8 52h5M9 53h4"/></g></svg>