<svg xmlns="http://www.w3.org/2000/svg" viewBox="0 0 300 400" width="300" height="400"><rect width="300" height="400" fill="#000000"/><g fill="none" stroke="#FFFFFF" stroke-width="3"><rect x="24" y="24" width="252" height="352"/><rect x="27.6" y="27.6" width="34.8" height="22.2"/><rect x="69.6" y="27.6" width="34.8" height="22.2"/><rect x="111.6" y="27.6" width="34.8" height="22.2"/><rect x="153.6" y="27.6" width="34.8" height="22.2" fill="#FFFFFF"/><rect x="195.6" y="27.6" width="34.8" height="22.2"/><rect x="237.6" y="27.6" width="34.8" height="22.2"/><rect x="24" y="56.9" width="252" height="22.2" fill="#FFFFFF"/><rect x="27.6" y="86.2" width="34.8" height="22.2" fill="#FFFFFF"/><rect x="69.6" y="86.2" width="34.8" height="22.2" fill="#FFFFFF"/><rect x="111.6" y="86.2" width="34.8" height="22.2"/><rect x="153.6" y="86.2" width="34.8" height="22.2"/><rect x="195.6" y="86.2" width="34.8" height="22.2" fill="#FFFFFF"/><rect x="237.6" y="86.2" width="34.8" height="22.2"/><rect x="27.6" y="115.6" width="34.8" height="22.2" fill="#FFFFFF"/><rect x="69.6" y="115.6" width="34.8" height="22.2" fill="#FFFFFF"/><rect x="111.6" y="115.6" width="34.8" height="22.2"/><rect x="153.6" y="115.6" width="34.8" height="22.2"/><rect x="195.6" y="115.6" width="34.8" height="22.2"/><rect x="237.6" y="115.6" width="34.8" height="22.2"/><rect x="27.6" y="144.9" width="34.8" height="22.2"/><rect x="69.6" y="144.9" width="34.8" height="22.2"/><rect x="111.6" y="144.9" width="34.8" height="22.2"/><rect x="153.6" y="144.9" width="34.8" height="22.2" fill="#FFFFFF"/><rect x="195.6" y="144.9" width="34.8" height="22.2"/><rect x="237.6" y="144.9" width="34.8" height="22.2"/><rect x="27.6" y="174.2" width="34.8" height="22.2"/><rect x="69.6" y="174.2" width="34.8" height="22.2"/><rect x="111.6" y="174.2" width="34.8" height="22.2" fill="#FFFFFF"/><rect x="153.6" y="174.2" width="34.8" height="22.2"/><rect x="195.6" y="174.2" width="34.8" height="22.2" fill="#FFFFFF"/><rect x="237.6" y="174.2" width="34.8" height="22.2"/><rect x="27.6" y="203.6" width="34.8" height="22.2" fill="#FFFFFF"/><rect x="69.6" y="203.6" width="34.8" height="22.2"/><rect x="111.6" y="203.6" width="34.8" height="22.2"/><rect x="153.6" y="203.6" width="34.8" height="22.2"/><rect x="195.6" y="203.6" width="34.8" height="22.2"/><rect x="237.6" y="203.6" width="34.8" height="22.2" fill="#FFFFFF"/><rect x="27.6" y="232.9" width="34.8" height="22.2" fill="#FFFFFF"/><rect x="69.6" y="232.9" width="34.8" height="22.2"/><rect x="111.6" y="232.9" width="34.8" height="22.2"/><rect x="153.6" y="232.9" width="34.8" height="22.2"/><rect x="195.6" y="232.9" width="34.8" height="22.2"/><rect x="237.6" y="232.9" width="34.8" height="22.2"/><rect x="27.6" y="262.2" width="34.8" height="22.2"/><rect x="69.6" y="262.2" width="34.8" height="22.2"/><rect x="111.6" y="262.2" width="34.8" height="22.2" fill="#FFFFFF"/><rect x="153.6" y="262.2" width="34.8" height="22.2"/><rect x="195.6" y="262.2" width="34.8" height="22.2" fill="#FFFFFF"/><rect x="237.6" y="262.2" width="34.8" height="22.2"/><rect x="24" y="291.6" width="252" height="22.2" fill="#FFFFFF"/><rect x="24" y="320.9" width="252" height="22.2" fill="#FFFFFF"/><rect x="27.6" y="350.2" width="34.8" height="22.2"/><rect x="69.6" y="350.2" width="34.8" height="22.2"/><rect x="111.6" y="350.2" width="34.8" height="22.2"/><rect x="153.6" y="350.2" width="34.8" height="22.2"/><rect x="195.6" y="350.2" width="34.8" height="22.2" fill="#FFFFFF"/><rect x="237.6" y="350.2" width="34.8" height="22.2"/></g></svg>